<?xml version="1.0" standalone="no"?>
<!DOCTYPE svg PUBLIC "-//W3C//DTD SVG 20010904//EN"
 "http://www.w3.org/TR/2001/REC-SVG-20010904/DTD/svg10.dtd">
<svg version="1.0" xmlns="http://www.w3.org/2000/svg"
 width="512.000000pt" height="512.000000pt" viewBox="0 0 512.000000 512.000000"
 preserveAspectRatio="xMidYMid meet">
<metadata>
Created by potrace 1.11, written by Peter Selinger 2001-2013
</metadata>
<g transform="translate(0.000000,512.000000) scale(0.100000,-0.100000)"
fill="#000000" stroke="none">
<path d="M0 2560 l0 -2560 2560 0 2560 0 0 2560 0 2560 -2560 0 -2560 0 0
-2560z m3015 1910 c290 -13 569 -35 844 -66 375 -41 489 -61 551 -92 61 -30
113 -91 130 -150 15 -56 14 -2372 -2 -2424 -16 -55 -87 -131 -146 -156 -97
-42 -978 -142 -1249 -142 l-53 0 0 -159 c0 -143 2 -160 18 -165 9 -3 197 -55
416 -116 220 -61 412 -118 428 -126 63 -33 86 -119 48 -181 -41 -68 63 -63
-1440 -63 -1503 0 -1399 -5 -1440 63 -38 62 -15 148 48 181 16 8 208 65 428
126 219 61 407 113 417 116 15 5 17 22 17 165 l0 159 -52 0 c-272 0 -1153 100
-1250 142 -59 25 -130 101 -146 156 -16 52 -17 2368 -2 2424 16 55 68 117 125
149 42 23 80 32 230 53 693 97 1443 135 2080 106z"/>
<path d="M2145 3969 c-298 -12 -969 -67 -1027 -85 -17 -5 -18 -58 -18 -924 l0
-919 33 -5 c116 -20 508 -57 817 -78 240 -16 980 -16 1220 0 309 21 701 58
818 78 l32 5 0 919 0 920 -22 5 c-38 8 -391 43 -608 60 -438 33 -838 41 -1245
24z"/>
</g>
</svg>
